<svg xmlns="http://www.w3.org/2000/svg" width="26.465" height="20.854" viewBox="0 0 26.465 20.854">
  <path id="book_icon_158035" d="M13.25,22.716a14.087,14.087,0,0,0-4.213-3.169,13.641,13.641,0,0,0-4.859-1.4c-.341-.033-.624-.064-.629-.068s0-3.562.022-7.905L3.6,2.28l.315.031A14.021,14.021,0,0,1,9.643,4.252a14.18,14.18,0,0,1,3.788,3.532l.233.327v7.5c0,4.126-.018,7.5-.039,7.5a2.8,2.8,0,0,1-.375-.4Zm1.6-7.123V8.061l.45-.6a15.292,15.292,0,0,1,2.5-2.5,13.294,13.294,0,0,1,6.809-2.655l.323-.033V18.088l-.375.035a14.04,14.04,0,0,0-9.024,4.294l-.681.708V15.593Zm2.2,7.021a12.656,12.656,0,0,1,5.084-2.864,12.848,12.848,0,0,1,3.064-.462c.438,0,.681-.095.819-.32.1-.17.1-.243.1-6.651V5.837l.194.035c.107.022.409.106.672.19l.478.152V14.3c0,4.448-.018,8.087-.039,8.087s-.342-.068-.711-.152a15.932,15.932,0,0,0-4.238-.4,16.1,16.1,0,0,0-5.169.931L16.636,23l.414-.388Zm-5.893.126a18.611,18.611,0,0,0-2.765-.706,15.571,15.571,0,0,0-3.245-.2,14.628,14.628,0,0,0-3.294.377c-.313.071-.633.143-.711.159L1,22.4V6.185l.607-.176c.334-.1.636-.187.672-.2.051-.022.065,1.3.065,6.473,0,7.07-.015,6.676.286,6.874a2.474,2.474,0,0,0,.946.137,12.557,12.557,0,0,1,6.742,2.387,17.715,17.715,0,0,1,1.463,1.235c.04.064.013.057-.624-.172Z" transform="translate(-1 -2.272)" fill="#616161"/>
</svg>
