<svg xmlns="http://www.w3.org/2000/svg" width="28.222" height="22.239" viewBox="0 0 28.222 22.239">
  <path id="book_icon_158035" d="M14.064,24.074a15.023,15.023,0,0,0-4.492-3.38A14.546,14.546,0,0,0,4.39,19.205c-.364-.035-.665-.068-.67-.073s0-3.8.024-8.43L3.774,2.28l.336.033a14.952,14.952,0,0,1,6.107,2.07,15.121,15.121,0,0,1,4.04,3.766l.249.349v8c0,4.4-.019,8-.041,8a2.987,2.987,0,0,1-.4-.422Zm1.709-7.6V8.445l.48-.642a16.308,16.308,0,0,1,2.663-2.664,14.177,14.177,0,0,1,7.261-2.832l.344-.035V19.139l-.4.038A14.972,14.972,0,0,0,16.5,23.756l-.726.755V16.478Zm2.343,7.487a13.5,13.5,0,0,1,5.422-3.054,13.7,13.7,0,0,1,3.267-.493c.467,0,.727-.1.873-.341.11-.181.111-.259.111-7.092V6.074L28,6.112c.114.024.436.113.717.2l.51.162V15.1c0,4.743-.019,8.624-.042,8.624s-.364-.073-.758-.162a16.99,16.99,0,0,0-4.519-.425,17.168,17.168,0,0,0-5.512.992l-.717.248.441-.414Zm-6.284.134a19.847,19.847,0,0,0-2.949-.753,16.6,16.6,0,0,0-3.46-.212,15.6,15.6,0,0,0-3.512.4c-.333.075-.675.153-.758.169L1,23.739V6.444l.647-.188c.356-.1.678-.2.716-.212.055-.024.069,1.385.069,6.9,0,7.539-.016,7.119.305,7.33a2.639,2.639,0,0,0,1.009.146,13.391,13.391,0,0,1,7.19,2.545,18.891,18.891,0,0,1,1.56,1.317c.042.068.014.061-.665-.183Z" transform="translate(-1 -2.272)"/>
</svg>
