<svg xmlns="http://www.w3.org/2000/svg" width="24.747" height="24.748" viewBox="0 0 24.747 24.748">
  <g id="Layer_x0020_1" transform="translate(-16.42 -16.42)">
    <path id="Path_19" data-name="Path 19" d="M28.794,26.158a.908.908,0,0,1,.906.905.825.825,0,0,0,1.65,0,2.553,2.553,0,0,0-1.732-2.407v-.468a.825.825,0,1,0-1.65,0v.468a2.549,2.549,0,0,0,.825,4.963.906.906,0,1,1-.905.906.825.825,0,1,0-1.65,0,2.55,2.55,0,0,0,1.73,2.406V33.4a.825.825,0,1,0,1.65,0v-.468a2.548,2.548,0,0,0-.824-4.962.906.906,0,0,1,0-1.812Zm6.911,7.217a.825.825,0,0,0,1.114-.343,9.071,9.071,0,1,0-3.847,3.818.825.825,0,1,0-.762-1.464,7.311,7.311,0,0,1-3.417.833,7.42,7.42,0,1,1,6.568-3.959A.824.824,0,0,0,35.705,33.375ZM28.794,16.42A12.331,12.331,0,0,0,22.085,18.4a.825.825,0,1,0,.9,1.386,10.723,10.723,0,1,1-3.23,3.246.825.825,0,0,0-1.39-.89A12.374,12.374,0,1,0,28.794,16.42Z" fill="#616161"/>
  </g>
</svg>
