<svg xmlns="http://www.w3.org/2000/svg" width="9.865" height="9.85" viewBox="0 0 9.865 9.85">
  <g id="bag-discount" transform="translate(-3.959 -4)">
    <path id="Path_10" data-name="Path 10" d="M13.551,6.111a1.055,1.055,0,0,0-.79-.352H11.146A2.111,2.111,0,0,0,9.067,4H8.716A2.111,2.111,0,0,0,6.636,5.759H5.022A1.055,1.055,0,0,0,3.966,6.938L4.61,12.9a1.055,1.055,0,0,0,1.055.955h6.456a1.055,1.055,0,0,0,1.055-.952l.64-5.958A1.055,1.055,0,0,0,13.551,6.111Zm-6.2-.352A1.407,1.407,0,0,1,8.716,4.7h.352a1.407,1.407,0,0,1,1.361,1.055Z" transform="translate(0)" fill="#414042"/>
    <path id="Path_11" data-name="Path 11" d="M26.095,6.111a1.055,1.055,0,0,0-.79-.352H23.69a2.091,2.091,0,0,0-.253-.7h0A2.111,2.111,0,0,0,21.611,4h-.352A2.111,2.111,0,0,0,19.18,5.759H19.9A1.407,1.407,0,0,1,21.259,4.7h.352a1.407,1.407,0,0,1,.927.352h0a1.5,1.5,0,0,1,.139.141l.014.018a1.246,1.246,0,0,1,.107.146l.019.032a1.317,1.317,0,0,1,.081.157.031.031,0,0,0,.012.03,1.373,1.373,0,0,1,.062.176H21.435v8.1h3.23A1.055,1.055,0,0,0,25.72,12.9l.64-5.958A1.055,1.055,0,0,0,26.095,6.111Z" transform="translate(-12.544 0)" fill="#231f20"/>
    <path id="Path_12" data-name="Path 12" d="M23.462,25.605l-2.178,2.079L19.592,29.3a.352.352,0,1,1-.485-.51l2.178-2.079L22.977,25.1a.352.352,0,1,1,.485.51Z" transform="translate(-12.393 -17.305)" fill="#fff200"/>
    <path id="Path_13" data-name="Path 13" d="M19.287,24.143a1.143,1.143,0,1,0-1.143,1.143A1.143,1.143,0,0,0,19.287,24.143Zm-1.583,0a.44.44,0,1,1,.44.44A.44.44,0,0,1,17.7,24.143Z" transform="translate(-10.747 -15.658)" fill="#fff200"/>
    <path id="Path_14" data-name="Path 14" d="M35.143,39a1.143,1.143,0,1,0,1.143,1.143A1.143,1.143,0,0,0,35.143,39Zm0,1.583a.44.44,0,1,1,.44-.44A.44.44,0,0,1,35.143,40.583Z" transform="translate(-24.757 -28.843)" fill="#fff200"/>
    <path id="Path_15" data-name="Path 15" d="M34.19,25.107a.352.352,0,0,0-.5-.012L32,26.709v.974L34.178,25.6a.352.352,0,0,0,.012-.5Z" transform="translate(-23.109 -17.304)" fill="#ffbe00"/>
    <path id="Path_16" data-name="Path 16" d="M35.143,39a1.143,1.143,0,1,0,1.143,1.143A1.143,1.143,0,0,0,35.143,39Zm0,1.583a.44.44,0,1,1,.44-.44A.44.44,0,0,1,35.143,40.583Z" transform="translate(-24.757 -28.843)" fill="#ffbe00"/>
  </g>
</svg>
